<?xml version="1.0" encoding="UTF-8" standalone="no"?>
<!DOCTYPE svg PUBLIC "-//W3C//DTD SVG 1.1//EN"
 "http://www.w3.org/Graphics/SVG/1.1/DTD/svg11.dtd">
<!-- Generated by graphviz version 2.44.1 (20200629.0846)
 -->
<!-- Title: dependencies Pages: 1 -->
<svg width="2875pt" height="284pt"
 viewBox="0.00 0.00 2875.00 284.00" xmlns="http://www.w3.org/2000/svg" xmlns:xlink="http://www.w3.org/1999/xlink">
<g id="graph0" class="graph" transform="scale(1 1) rotate(0) translate(4 280)">
<title>dependencies</title>
<polygon fill="white" stroke="transparent" points="-4,4 -4,-280 2871,-280 2871,4 -4,4"/>
<text text-anchor="start" x="1412.51" y="-42.4" font-family="sans-serif" font-weight="bold" font-size="14.00">Legend</text>
<polygon fill="#ffffb3" stroke="transparent" points="1199.5,-10 1199.5,-30 1219.5,-30 1219.5,-10 1199.5,-10"/>
<text text-anchor="start" x="1223.13" y="-15.4" font-family="sans-serif" font-size="14.00"> &#160;Declarations</text>
<polygon fill="#8dd3c7" stroke="transparent" points="1312.5,-10 1312.5,-30 1332.5,-30 1332.5,-10 1312.5,-10"/>
<text text-anchor="start" x="1336.23" y="-15.4" font-family="sans-serif" font-size="14.00"> &#160;Module</text>
<polygon fill="#80b1d3" stroke="transparent" points="1398.5,-10 1398.5,-30 1418.5,-30 1418.5,-10 1398.5,-10"/>
<text text-anchor="start" x="1422.28" y="-15.4" font-family="sans-serif" font-size="14.00"> &#160;Bootstrap</text>
<polygon fill="#fdb462" stroke="transparent" points="1495.5,-10 1495.5,-30 1515.5,-30 1515.5,-10 1495.5,-10"/>
<text text-anchor="start" x="1519.17" y="-15.4" font-family="sans-serif" font-size="14.00"> &#160;Providers</text>
<polygon fill="#fb8072" stroke="transparent" points="1591.5,-10 1591.5,-30 1611.5,-30 1611.5,-10 1591.5,-10"/>
<text text-anchor="start" x="1615.23" y="-15.4" font-family="sans-serif" font-size="14.00"> &#160;Exports</text>
<g id="clust1" class="cluster">
<title>cluster_AppModule</title>
<polygon fill="none" stroke="black" stroke-dasharray="1,5" points="8,-70 8,-268 2859,-268 2859,-70 8,-70"/>
</g>
<g id="clust20" class="cluster">
<title>cluster_AppModule_imports</title>
<polygon fill="none" stroke="black" points="2707,-78 2707,-130 2851,-130 2851,-78 2707,-78"/>
</g>
<g id="clust22" class="cluster">
<title>cluster_AppModule_bootstrap</title>
<polygon fill="none" stroke="black" points="1332,-208 1332,-260 1456,-260 1456,-208 1332,-208"/>
</g>
<g id="clust2" class="cluster">
<title>cluster_AppModule_declarations</title>
<polygon fill="none" stroke="black" points="16,-78 16,-130 2699,-130 2699,-78 16,-78"/>
</g>
<!-- AlertasComponent -->
<g id="node1" class="node">
<title>AlertasComponent</title>
<polygon fill="#ffffb3" stroke="black" points="2690.75,-122 2569.25,-122 2569.25,-86 2690.75,-86 2690.75,-122"/>
<text text-anchor="middle" x="2630" y="-99.8" font-family="Times,serif" font-size="14.00">AlertasComponent</text>
</g>
<!-- AppModule -->
<g id="node18" class="node">
<title>AppModule</title>
<polygon fill="#8dd3c7" stroke="black" points="1435.66,-187 1432.66,-191 1411.66,-191 1408.66,-187 1352.34,-187 1352.34,-151 1435.66,-151 1435.66,-187"/>
<text text-anchor="middle" x="1394" y="-164.8" font-family="Times,serif" font-size="14.00">AppModule</text>
</g>
<!-- AlertasComponent&#45;&gt;AppModule -->
<g id="edge1" class="edge">
<title>AlertasComponent&#45;&gt;AppModule</title>
<path fill="none" stroke="black" d="M2630,-122.16C2630,-144.35 2630,-179 2630,-179 2630,-179 1445.83,-179 1445.83,-179"/>
<polygon fill="black" stroke="black" points="1445.83,-175.5 1435.83,-179 1445.83,-182.5 1445.83,-175.5"/>
</g>
<!-- AppComponent -->
<g id="node2" class="node">
<title>AppComponent</title>
<polygon fill="#ffffb3" stroke="black" points="2550.94,-122 2445.06,-122 2445.06,-86 2550.94,-86 2550.94,-122"/>
<text text-anchor="middle" x="2498" y="-99.8" font-family="Times,serif" font-size="14.00">AppComponent</text>
</g>
<!-- AppComponent&#45;&gt;AppModule -->
<g id="edge2" class="edge">
<title>AppComponent&#45;&gt;AppModule</title>
<path fill="none" stroke="black" d="M2498,-122.28C2498,-143.32 2498,-175 2498,-175 2498,-175 1445.93,-175 1445.93,-175"/>
<polygon fill="black" stroke="black" points="1445.93,-171.5 1435.93,-175 1445.93,-178.5 1445.93,-171.5"/>
</g>
<!-- CadastroComponent -->
<g id="node3" class="node">
<title>CadastroComponent</title>
<polygon fill="#ffffb3" stroke="black" points="2427.59,-122 2296.41,-122 2296.41,-86 2427.59,-86 2427.59,-122"/>
<text text-anchor="middle" x="2362" y="-99.8" font-family="Times,serif" font-size="14.00">CadastroComponent</text>
</g>
<!-- CadastroComponent&#45;&gt;AppModule -->
<g id="edge3" class="edge">
<title>CadastroComponent&#45;&gt;AppModule</title>
<path fill="none" stroke="black" d="M2362,-122.31C2362,-142.15 2362,-171 2362,-171 2362,-171 1445.9,-171 1445.9,-171"/>
<polygon fill="black" stroke="black" points="1445.9,-167.5 1435.9,-171 1445.9,-174.5 1445.9,-167.5"/>
</g>
<!-- CadastroProdutoCategoriaComponent -->
<g id="node4" class="node">
<title>CadastroProdutoCategoriaComponent</title>
<polygon fill="#ffffb3" stroke="black" points="2278.85,-122 2049.15,-122 2049.15,-86 2278.85,-86 2278.85,-122"/>
<text text-anchor="middle" x="2164" y="-99.8" font-family="Times,serif" font-size="14.00">CadastroProdutoCategoriaComponent</text>
</g>
<!-- CadastroProdutoCategoriaComponent&#45;&gt;AppModule -->
<g id="edge4" class="edge">
<title>CadastroProdutoCategoriaComponent&#45;&gt;AppModule</title>
<path fill="none" stroke="black" d="M2164,-122.22C2164,-140.83 2164,-167 2164,-167 2164,-167 1445.67,-167 1445.67,-167"/>
<polygon fill="black" stroke="black" points="1445.67,-163.5 1435.67,-167 1445.67,-170.5 1445.67,-163.5"/>
</g>
<!-- DeleteCategoriaComponent -->
<g id="node5" class="node">
<title>DeleteCategoriaComponent</title>
<polygon fill="#ffffb3" stroke="black" points="2031.29,-122 1858.71,-122 1858.71,-86 2031.29,-86 2031.29,-122"/>
<text text-anchor="middle" x="1945" y="-99.8" font-family="Times,serif" font-size="14.00">DeleteCategoriaComponent</text>
</g>
<!-- DeleteCategoriaComponent&#45;&gt;AppModule -->
<g id="edge5" class="edge">
<title>DeleteCategoriaComponent&#45;&gt;AppModule</title>
<path fill="none" stroke="black" d="M1945,-122.02C1945,-139.37 1945,-163 1945,-163 1945,-163 1445.87,-163 1445.87,-163"/>
<polygon fill="black" stroke="black" points="1445.87,-159.5 1435.87,-163 1445.87,-166.5 1445.87,-159.5"/>
</g>
<!-- DeleteProdutosComponent -->
<g id="node6" class="node">
<title>DeleteProdutosComponent</title>
<polygon fill="#ffffb3" stroke="black" points="1840.64,-122 1673.36,-122 1673.36,-86 1840.64,-86 1840.64,-122"/>
<text text-anchor="middle" x="1757" y="-99.8" font-family="Times,serif" font-size="14.00">DeleteProdutosComponent</text>
</g>
<!-- DeleteProdutosComponent&#45;&gt;AppModule -->
<g id="edge6" class="edge">
<title>DeleteProdutosComponent&#45;&gt;AppModule</title>
<path fill="none" stroke="black" d="M1757,-122.01C1757,-138.05 1757,-159 1757,-159 1757,-159 1446,-159 1446,-159"/>
<polygon fill="black" stroke="black" points="1446,-155.5 1436,-159 1446,-162.5 1446,-155.5"/>
</g>
<!-- FooterComponent -->
<g id="node7" class="node">
<title>FooterComponent</title>
<polygon fill="#ffffb3" stroke="black" points="1654.88,-122 1537.12,-122 1537.12,-86 1654.88,-86 1654.88,-122"/>
<text text-anchor="middle" x="1596" y="-99.8" font-family="Times,serif" font-size="14.00">FooterComponent</text>
</g>
<!-- FooterComponent&#45;&gt;AppModule -->
<g id="edge7" class="edge">
<title>FooterComponent&#45;&gt;AppModule</title>
<path fill="none" stroke="black" d="M1596,-122.12C1596,-136.78 1596,-155 1596,-155 1596,-155 1445.85,-155 1445.85,-155"/>
<polygon fill="black" stroke="black" points="1445.85,-151.5 1435.85,-155 1445.85,-158.5 1445.85,-151.5"/>
</g>
<!-- HomeComponent -->
<g id="node8" class="node">
<title>HomeComponent</title>
<polygon fill="#ffffb3" stroke="black" points="1518.55,-122 1403.45,-122 1403.45,-86 1518.55,-86 1518.55,-122"/>
<text text-anchor="middle" x="1461" y="-99.8" font-family="Times,serif" font-size="14.00">HomeComponent</text>
</g>
<!-- HomeComponent&#45;&gt;AppModule -->
<g id="edge8" class="edge">
<title>HomeComponent&#45;&gt;AppModule</title>
<path fill="none" stroke="black" d="M1419.53,-122.11C1419.53,-122.11 1419.53,-140.99 1419.53,-140.99"/>
<polygon fill="black" stroke="black" points="1416.03,-140.99 1419.53,-150.99 1423.03,-140.99 1416.03,-140.99"/>
</g>
<!-- LoginComponent -->
<g id="node9" class="node">
<title>LoginComponent</title>
<polygon fill="#ffffb3" stroke="black" points="1385.28,-122 1270.72,-122 1270.72,-86 1385.28,-86 1385.28,-122"/>
<text text-anchor="middle" x="1328" y="-99.8" font-family="Times,serif" font-size="14.00">LoginComponent</text>
</g>
<!-- LoginComponent&#45;&gt;AppModule -->
<g id="edge9" class="edge">
<title>LoginComponent&#45;&gt;AppModule</title>
<path fill="none" stroke="black" d="M1368.78,-122.11C1368.78,-122.11 1368.78,-140.99 1368.78,-140.99"/>
<polygon fill="black" stroke="black" points="1365.28,-140.99 1368.78,-150.99 1372.28,-140.99 1365.28,-140.99"/>
</g>
<!-- NavbarComponent -->
<g id="node10" class="node">
<title>NavbarComponent</title>
<polygon fill="#ffffb3" stroke="black" points="1252.03,-122 1129.97,-122 1129.97,-86 1252.03,-86 1252.03,-122"/>
<text text-anchor="middle" x="1191" y="-99.8" font-family="Times,serif" font-size="14.00">NavbarComponent</text>
</g>
<!-- NavbarComponent&#45;&gt;AppModule -->
<g id="edge10" class="edge">
<title>NavbarComponent&#45;&gt;AppModule</title>
<path fill="none" stroke="black" d="M1191,-122.12C1191,-136.78 1191,-155 1191,-155 1191,-155 1341.94,-155 1341.94,-155"/>
<polygon fill="black" stroke="black" points="1341.94,-158.5 1351.94,-155 1341.94,-151.5 1341.94,-158.5"/>
</g>
<!-- PesquisaCategoriaComponent -->
<g id="node11" class="node">
<title>PesquisaCategoriaComponent</title>
<polygon fill="#ffffb3" stroke="black" points="1111.25,-122 926.75,-122 926.75,-86 1111.25,-86 1111.25,-122"/>
<text text-anchor="middle" x="1019" y="-99.8" font-family="Times,serif" font-size="14.00">PesquisaCategoriaComponent</text>
</g>
<!-- PesquisaCategoriaComponent&#45;&gt;AppModule -->
<g id="edge11" class="edge">
<title>PesquisaCategoriaComponent&#45;&gt;AppModule</title>
<path fill="none" stroke="black" d="M1019,-122.01C1019,-138.05 1019,-159 1019,-159 1019,-159 1342.07,-159 1342.07,-159"/>
<polygon fill="black" stroke="black" points="1342.07,-162.5 1352.07,-159 1342.07,-155.5 1342.07,-162.5"/>
</g>
<!-- PesquisaComponent -->
<g id="node12" class="node">
<title>PesquisaComponent</title>
<polygon fill="#ffffb3" stroke="black" points="908.32,-122 777.68,-122 777.68,-86 908.32,-86 908.32,-122"/>
<text text-anchor="middle" x="843" y="-99.8" font-family="Times,serif" font-size="14.00">PesquisaComponent</text>
</g>
<!-- PesquisaComponent&#45;&gt;AppModule -->
<g id="edge12" class="edge">
<title>PesquisaComponent&#45;&gt;AppModule</title>
<path fill="none" stroke="black" d="M843,-122.02C843,-139.37 843,-163 843,-163 843,-163 1342.13,-163 1342.13,-163"/>
<polygon fill="black" stroke="black" points="1342.13,-166.5 1352.13,-163 1342.13,-159.5 1342.13,-166.5"/>
</g>
<!-- ProductComponent -->
<g id="node13" class="node">
<title>ProductComponent</title>
<polygon fill="#ffffb3" stroke="black" points="759.38,-122 634.62,-122 634.62,-86 759.38,-86 759.38,-122"/>
<text text-anchor="middle" x="697" y="-99.8" font-family="Times,serif" font-size="14.00">ProductComponent</text>
</g>
<!-- ProductComponent&#45;&gt;AppModule -->
<g id="edge13" class="edge">
<title>ProductComponent&#45;&gt;AppModule</title>
<path fill="none" stroke="black" d="M697,-122.22C697,-140.83 697,-167 697,-167 697,-167 1342.23,-167 1342.23,-167"/>
<polygon fill="black" stroke="black" points="1342.23,-170.5 1352.23,-167 1342.23,-163.5 1342.23,-170.5"/>
</g>
<!-- PutCategoriaComponent -->
<g id="node14" class="node">
<title>PutCategoriaComponent</title>
<polygon fill="#ffffb3" stroke="black" points="616.43,-122 461.57,-122 461.57,-86 616.43,-86 616.43,-122"/>
<text text-anchor="middle" x="539" y="-99.8" font-family="Times,serif" font-size="14.00">PutCategoriaComponent</text>
</g>
<!-- PutCategoriaComponent&#45;&gt;AppModule -->
<g id="edge14" class="edge">
<title>PutCategoriaComponent&#45;&gt;AppModule</title>
<path fill="none" stroke="black" d="M539,-122.31C539,-142.15 539,-171 539,-171 539,-171 1342.18,-171 1342.18,-171"/>
<polygon fill="black" stroke="black" points="1342.18,-174.5 1352.18,-171 1342.18,-167.5 1342.18,-174.5"/>
</g>
<!-- PutProdutosComponent -->
<g id="node15" class="node">
<title>PutProdutosComponent</title>
<polygon fill="#ffffb3" stroke="black" points="443.78,-122 294.22,-122 294.22,-86 443.78,-86 443.78,-122"/>
<text text-anchor="middle" x="369" y="-99.8" font-family="Times,serif" font-size="14.00">PutProdutosComponent</text>
</g>
<!-- PutProdutosComponent&#45;&gt;AppModule -->
<g id="edge15" class="edge">
<title>PutProdutosComponent&#45;&gt;AppModule</title>
<path fill="none" stroke="black" d="M369,-122.28C369,-143.32 369,-175 369,-175 369,-175 1342.23,-175 1342.23,-175"/>
<polygon fill="black" stroke="black" points="1342.23,-178.5 1352.23,-175 1342.23,-171.5 1342.23,-178.5"/>
</g>
<!-- SearchComponent -->
<g id="node16" class="node">
<title>SearchComponent</title>
<polygon fill="#ffffb3" stroke="black" points="275.92,-122 156.08,-122 156.08,-86 275.92,-86 275.92,-122"/>
<text text-anchor="middle" x="216" y="-99.8" font-family="Times,serif" font-size="14.00">SearchComponent</text>
</g>
<!-- SearchComponent&#45;&gt;AppModule -->
<g id="edge16" class="edge">
<title>SearchComponent&#45;&gt;AppModule</title>
<path fill="none" stroke="black" d="M216,-122.16C216,-144.35 216,-179 216,-179 216,-179 1342.07,-179 1342.07,-179"/>
<polygon fill="black" stroke="black" points="1342.07,-182.5 1352.07,-179 1342.07,-175.5 1342.07,-182.5"/>
</g>
<!-- SobreComponent -->
<g id="node17" class="node">
<title>SobreComponent</title>
<polygon fill="#ffffb3" stroke="black" points="137.99,-122 24.01,-122 24.01,-86 137.99,-86 137.99,-122"/>
<text text-anchor="middle" x="81" y="-99.8" font-family="Times,serif" font-size="14.00">SobreComponent</text>
</g>
<!-- SobreComponent&#45;&gt;AppModule -->
<g id="edge17" class="edge">
<title>SobreComponent&#45;&gt;AppModule</title>
<path fill="none" stroke="black" d="M81,-122.32C81,-145.66 81,-183 81,-183 81,-183 1342.17,-183 1342.17,-183"/>
<polygon fill="black" stroke="black" points="1342.17,-186.5 1352.17,-183 1342.17,-179.5 1342.17,-186.5"/>
</g>
<!-- AppComponent  -->
<g id="node20" class="node">
<title>AppComponent </title>
<polygon fill="#80b1d3" stroke="black" points="1448.44,-252 1339.56,-252 1339.56,-216 1448.44,-216 1448.44,-252"/>
<text text-anchor="middle" x="1394" y="-229.8" font-family="Times,serif" font-size="14.00">AppComponent </text>
</g>
<!-- AppModule&#45;&gt;AppComponent  -->
<g id="edge19" class="edge">
<title>AppModule&#45;&gt;AppComponent </title>
<path fill="none" stroke="black" stroke-dasharray="1,5" d="M1394,-187.11C1394,-187.11 1394,-205.99 1394,-205.99"/>
<polygon fill="black" stroke="black" points="1390.5,-205.99 1394,-215.99 1397.5,-205.99 1390.5,-205.99"/>
</g>
<!-- AppRoutingModule -->
<g id="node19" class="node">
<title>AppRoutingModule</title>
<polygon fill="#8dd3c7" stroke="black" points="2843.27,-122 2840.27,-126 2819.27,-126 2816.27,-122 2714.73,-122 2714.73,-86 2843.27,-86 2843.27,-122"/>
<text text-anchor="middle" x="2779" y="-99.8" font-family="Times,serif" font-size="14.00">AppRoutingModule</text>
</g>
<!-- AppRoutingModule&#45;&gt;AppModule -->
<g id="edge18" class="edge">
<title>AppRoutingModule&#45;&gt;AppModule</title>
<path fill="none" stroke="black" d="M2779,-122.32C2779,-145.66 2779,-183 2779,-183 2779,-183 1445.83,-183 1445.83,-183"/>
<polygon fill="black" stroke="black" points="1445.83,-179.5 1435.83,-183 1445.83,-186.5 1445.83,-179.5"/>
</g>
</g>
</svg>
